PathFileType	4	(X/Y/Z)	C:\Users\Basilio\Documents\Thesis Gigler\squatting_fais\c3dfiles\073\SLS_front_pre1\markers_experimental.trc
DataRate	CameraRate	NumFrames	NumMarkers	Units	OrigDataRate	OrigDataStartFrame	OrigNumFrames
200.000000	200.000000	4	61	mm	200.000000	1046	1395
Frame#	Time	FHD			LBHD			RBHD			C7			T10			CLAV			LSHO			LUUPA			LMUPA			LDUPA			LLEP			LMEP			LRAD			LUL			LRFIN			RSHO			RUPA1			RMUPA			RDUPA			RLEP			RMEP			RUL			RUFIN			LASI			RASI			USACR			LSACR			RSACR			LTHI1			LTHI2			LTHI3			LTHI4			LLFC			LMFC			LTIB1			LTIB2			LTIB3			LTIB4			LLMAL			LMMAL			LHEE			LMT1			LMT2			LMT5			RTHI			RTHI2			RTHI3			RTHI4			RLFC			RMFC			RTIB1			RTIB2			RTIB3			RTIB4			RLMAL			RMMAL			RHEE			RMT1			RMT2			RMT5			RRAD			
		X1	Y1	Z1	X2	Y2	Z2	X3	Y3	Z3	X4	Y4	Z4	X5	Y5	Z5	X6	Y6	Z6	X7	Y7	Z7	X8	Y8	Z8	X9	Y9	Z9	X10	Y10	Z10	X11	Y11	Z11	X12	Y12	Z12	X13	Y13	Z13	X14	Y14	Z14	X15	Y15	Z15	X16	Y16	Z16	X17	Y17	Z17	X18	Y18	Z18	X19	Y19	Z19	X20	Y20	Z20	X21	Y21	Z21	X22	Y22	Z22	X23	Y23	Z23	X24	Y24	Z24	X25	Y25	Z25	X26	Y26	Z26	X27	Y27	Z27	X28	Y28	Z28	X29	Y29	Z29	X30	Y30	Z30	X31	Y31	Z31	X32	Y32	Z32	X33	Y33	Z33	X34	Y34	Z34	X35	Y35	Z35	X36	Y36	Z36	X37	Y37	Z37	X38	Y38	Z38	X39	Y39	Z39	X40	Y40	Z40	X41	Y41	Z41	X42	Y42	Z42	X43	Y43	Z43	X44	Y44	Z44	X45	Y45	Z45	X46	Y46	Z46	X47	Y47	Z47	X48	Y48	Z48	X49	Y49	Z49	X50	Y50	Z50	X51	Y51	Z51	X52	Y52	Z52	X53	Y53	Z53	X54	Y54	Z54	X55	Y55	Z55	X56	Y56	Z56	X57	Y57	Z57	X58	Y58	Z58	X59	Y59	Z59	X60	Y60	Z60	X61	Y61	Z61	

1047	5.23	-211.5114440917969	1704.5498046875	-772.1805419921877	-346.6112365722657	1674.05419921875	-792.1885986328127	-365.0402221679688	1654.215576171875	-658.1815795898439	-398.7446289062501	1548.7666015625	-721.7604370117189	-439.9374389648439	1212.202392578125	-724.3846435546876	-271.1109313964844	1468.946533203125	-728.1447753906251	-305.4327392578126	1506.114990234375	-877.1179809570315	-226.9093170166016	1425.056640625	-972.2875976562502	-184.4423370361328	1445.38134765625	-952.5860595703127	-164.7352905273438	1396.496215820313	-983.8828735351565	-61.85262680053712	1369.8935546875	-992.0003662109377	-64.68292236328126	1315.1572265625	-946.5101318359377	204.0611419677735	1385.67431640625	-895.6715087890627	203.8333282470704	1384.326293945313	-970.3765258789065	285.8981628417969	1393.346923828125	-891.7960205078127	-281.2190551757813	1497.57080078125	-576.8320312500001	-188.5520324707032	1386.026611328125	-485.3500366210939	-148.2416229248047	1406.961059570313	-501.3111877441407	-126.8789825439453	1355.15869140625	-480.4071350097657	-36.72442626953126	1333.392456054688	-482.4566955566407	-45.29052734375001	1280.012573242188	-545.3253784179689	226.1979980468751	1353.74169921875	-526.1828002929689	307.8698425292969	1357.805786132813	-605.9299926757814	-287.1849365234376	1070.1728515625	-878.2420043945315	-256.5716247558594	1034.718505859375	-631.2343139648439	-455.3872070312501	1108.3310546875	-726.4843139648439	-471.1559448242189	1082.74951171875	-756.6516723632814	-466.5189819335939	1074.205200195313	-701.2497558593751	-239.5438385009766	765.1110839843751	-936.458190917969	-187.5560455322266	702.6411743164064	-914.380310058594	-154.2261810302735	715.9313964843751	-880.8010253906252	-199.605209350586	644.4437255859376	-912.4544067382815	-185.6278381347657	585.1511840820314	-914.3634033203127	-202.0814819335938	572.8038940429689	-777.2041625976565	-104.1905593872071	398.386932373047	-864.9033813476565	-148.3883819580078	350.3987121582032	-924.6639404296877	-109.641098022461	350.5868225097657	-899.5228271484377	-96.98477172851565	271.8442687988282	-869.3132934570315	-135.1287536621094	146.1604461669922	-903.6298828125002	-135.313720703125	166.9134826660157	-818.4541015625002	-191.123291015625	104.1277847290039	-867.4846191406252	26.14474868774415	126.4477844238282	-808.6661376953127	31.13725090026856	129.7186584472657	-846.0352172851565	3.776577711105348	103.8145370483399	-903.5117797851565	-360.9498901367188	799.5393676757815	-580.6651000976564	-328.0969238281251	742.1416015625001	-582.1430664062501	-294.2591552734376	742.6248779296876	-584.2326660156251	-357.5134582519532	668.5805053710939	-611.4691772460939	-344.8764038085938	519.0391235351564	-638.3061523437501	-331.3260192871094	518.1770019531251	-769.3148193359377	-296.2633972167969	364.1430969238282	-735.9065551757814	-326.3857116699219	277.3175964355469	-679.4580078125001	-297.6409912109376	278.7754821777344	-718.5071411132814	-313.5543212890626	237.3002624511719	-756.1874389648439	-367.4212036132813	101.5870742797852	-720.5673217773439	-355.2570495605469	133.0446472167969	-803.7822875976565	-433.8536987304689	85.29425048828126	-781.7849731445315	-208.8004302978516	55.47239303588869	-786.068054199219	-210.9437713623047	50.99285888671876	-745.1791992187501	-256.6164245605469	33.26002883911134	-699.2439575195314	215.9080200195313	1346.523315429688	-601.2730712890626	
1048	5.235	-211.3351440429688	1704.580322265625	-772.0676879882815	-346.6342163085938	1673.9501953125	-792.0403442382815	-364.9494323730469	1654.162475585938	-657.9453125000001	-398.6954040527345	1548.714599609375	-721.5054321289064	-439.9776000976564	1212.172729492188	-724.1660766601564	-271.1707153320313	1468.8486328125	-727.9769897460939	-305.5298461914063	1506.065185546875	-876.9345703125002	-227.0298156738282	1425.000732421875	-972.100769042969	-184.5285034179688	1445.326416015625	-952.370544433594	-164.8284149169922	1396.410400390625	-983.7009277343752	-61.97573852539064	1369.8203125	-991.8868408203127	-64.71233367919923	1315.100219726563	-946.4174804687502	203.9289855957032	1385.693969726563	-895.516540527344	203.7173004150391	1384.327880859375	-970.2502441406252	285.7990722656251	1393.396240234375	-891.6026611328127	-281.1041870117188	1497.52197265625	-576.6316528320314	-188.3732452392578	1386.006713867188	-485.131072998047	-148.1182250976563	1406.924194335938	-501.1901855468751	-126.7631378173828	1355.164672851563	-480.2828979492189	-36.55661010742188	1333.359008789063	-482.3514709472657	-45.1429672241211	1279.9736328125	-545.2212524414064	226.2824096679688	1353.713623046875	-526.1389160156251	307.9860839843751	1357.761474609375	-605.8950805664064	-287.3395385742188	1070.25146484375	-878.292175292969	-256.4042358398438	1034.59814453125	-631.1669921875001	-455.4143066406251	1108.2431640625	-726.2722778320314	-471.2347412109376	1082.685791015625	-756.4747314453126	-466.5819091796876	1074.123046875	-701.0733032226564	-239.8783111572266	764.9813232421876	-936.4954223632815	-187.6487274169922	702.5645141601564	-914.4118652343752	-154.0797729492188	715.7901000976564	-881.1606445312502	-199.9330596923829	644.2890625000001	-912.478210449219	-186.0104522705078	585.0521240234376	-914.4944458007815	-202.6316680908204	572.6462402343751	-777.195739746094	-104.8246765136719	398.1747131347657	-864.9348144531252	-149.0185241699219	350.2571716308594	-924.5845947265627	-110.3113479614258	350.3910217285157	-899.713562011719	-97.678825378418	271.6381530761719	-869.3637695312502	-135.7655334472657	145.9707641601563	-903.735290527344	-136.1071472167969	166.6813201904297	-818.5263671875002	-192.0169372558594	103.9842071533203	-867.654968261719	25.27617263793946	126.0953063964844	-808.793884277344	30.40774154663087	129.5040283203125	-846.0201416015627	2.98422384262085	103.6257705688477	-903.5827636718752	-360.7547302246094	799.435974121094	-580.6480102539064	-327.9009399414063	742.0446166992189	-582.1514282226564	-294.0329284667969	742.5708007812501	-584.3088989257814	-357.2999877929688	668.4973754882814	-611.4613037109376	-344.5516357421876	518.9609375000001	-638.3911743164064	-331.3636169433594	518.1693115234376	-769.4143676757815	-296.1444396972657	364.0663757324219	-736.0947875976564	-326.1546630859376	277.2414855957032	-679.6126098632814	-297.4937133789063	278.7467956542969	-718.7337646484376	-313.4548339843751	237.2117156982422	-756.3899536132814	-367.4150085449219	101.5830001831055	-720.6450195312501	-355.3618469238282	132.9485321044922	-803.8999023437502	-433.8480529785157	85.30092620849611	-781.8037719726565	-208.9494781494141	55.41939926147462	-785.5259399414065	-210.9506072998047	51.00915145874025	-745.1738891601564	-256.5990295410157	33.27862930297852	-699.2896728515626	216.1248474121094	1346.541625976563	-601.3630371093751	
1049	5.24	-211.3171997070313	1704.510864257813	-771.9438476562502	-346.5662536621094	1673.833740234375	-791.8572998046877	-364.8870849609376	1654.076049804688	-657.7290039062501	-398.7031250000001	1548.687377929688	-721.2682495117189	-439.9319152832032	1212.12109375	-723.9820556640626	-271.1465759277344	1468.794311523438	-727.8225097656251	-305.5501098632813	1506.0185546875	-876.721374511719	-227.1641540527344	1424.890869140625	-971.9255981445315	-184.5997009277344	1445.243896484375	-952.141540527344	-164.9493713378907	1396.31640625	-983.527038574219	-62.08409881591798	1369.791259765625	-991.7229614257815	-64.83172607421876	1315.049560546875	-946.317321777344	203.8512573242188	1385.65185546875	-895.3836059570315	203.528305053711	1384.31787109375	-970.1245117187502	285.6850891113282	1393.365966796875	-891.446716308594	-280.9614257812501	1497.461181640625	-576.4680786132814	-188.226303100586	1385.96826171875	-484.9516906738282	-147.9929656982422	1406.905395507813	-501.1263122558595	-126.5968170166016	1355.1748046875	-480.1728515625001	-36.42973709106446	1333.3271484375	-482.2412414550782	-45.0207748413086	1279.910766601563	-545.1017456054689	226.4358062744141	1353.710693359375	-526.0900878906251	308.0519714355469	1357.77490234375	-605.8332519531251	-287.5899658203126	1070.225830078125	-878.3375244140627	-256.3744506835938	1034.5244140625	-631.3651733398439	-455.4483032226564	1108.145263671875	-726.0777587890626	-471.2720031738282	1082.622680664063	-756.2968139648439	-466.5807189941407	1074.04833984375	-700.9362182617189	-240.1263122558594	764.9212036132814	-936.426940917969	-187.9230499267578	702.2395019531251	-914.3648681640627	-154.4534912109375	715.6068725585939	-881.1213378906252	-200.440170288086	644.1156616210939	-912.4079589843752	-186.5083770751953	584.9310913085939	-914.619079589844	-203.1865539550782	572.4672851562501	-777.2105712890627	-105.4264907836914	397.9692993164064	-864.958435058594	-149.5910186767578	350.0874633789063	-924.6687011718752	-110.9099273681641	350.1820678710938	-899.880554199219	-98.38179016113284	271.4648437500001	-869.457458496094	-136.4246826171875	145.7579650878907	-903.7985839843752	-136.8423919677735	166.4950408935547	-818.4989013671877	-192.7953033447266	103.8299713134766	-867.7318115234377	24.46554374694825	125.758041381836	-808.8596191406252	29.50654602050782	129.2333984375	-846.0316162109377	2.152813911437989	103.2989807128907	-903.6368408203127	-360.4937744140626	799.295104980469	-580.6194458007814	-327.7203369140626	741.9487915039064	-582.1981201171876	-293.7483825683594	742.5085449218751	-584.4368896484376	-357.0315246582032	668.3885498046876	-611.4351196289064	-344.1925048828126	518.8500366210939	-638.4611816406251	-331.2691955566407	518.0456542968751	-769.4898071289065	-296.0475463867188	363.9911804199219	-736.3251342773439	-325.9334716796876	277.1605834960938	-679.7739257812501	-297.4368896484376	278.6353149414063	-718.9171752929689	-313.3870239257813	237.1836090087891	-756.5678100585939	-367.3820495605469	101.612548828125	-720.7103881835939	-355.3767395019532	132.8655548095703	-803.9705200195315	-433.829803466797	85.2617645263672	-781.8155517578127	-208.9736938476563	55.39793395996095	-785.5877075195315	-210.9786834716797	50.99684524536134	-745.2292480468751	-256.6125488281251	33.31546020507813	-699.3054199218751	216.2509307861329	1346.477416992188	-601.3423461914064	
1050	5.245	-211.3363342285157	1704.505004882813	-771.8848266601565	-346.5118713378907	1673.744750976563	-791.6655273437502	-364.7693176269532	1653.9521484375	-657.4768676757814	-398.6828613281251	1548.637084960938	-721.0573120117189	-439.9831542968751	1212.050903320313	-723.6949462890626	-271.1527709960938	1468.707885742188	-727.7291259765626	-305.6410522460938	1505.961303710938	-876.499450683594	-227.2504272460938	1424.853515625	-971.7651977539065	-184.6757049560547	1445.162963867188	-951.9253540039065	-165.0131072998047	1396.246459960938	-983.3135986328127	-62.19189834594728	1369.703125	-991.4924926757815	-64.85350036621095	1314.990600585938	-946.1933593750002	203.7565155029297	1385.662231445313	-895.2327880859377	203.4874572753907	1384.297607421875	-969.902282714844	285.5848999023438	1393.38232421875	-891.3152465820315	-280.8999023437501	1497.416137695313	-576.2376708984376	-188.0341491699219	1385.991821289063	-484.7467041015626	-147.869384765625	1406.8486328125	-501.0704040527345	-126.4849700927735	1355.1669921875	-480.0280761718751	-36.31907272338868	1333.285034179688	-482.1347045898439	-44.93388366699219	1279.863525390625	-544.9714355468751	226.5556640625001	1353.695678710938	-526.0596923828126	308.0986022949219	1357.78125	-605.8585815429689	-287.6875915527344	1070.25439453125	-878.418884277344	-256.3180541992188	1034.403686523438	-631.4371948242189	-455.4171142578126	1108.040283203125	-725.9899291992189	-471.2556457519532	1082.564086914063	-756.1624145507814	-466.5565185546876	1073.921997070313	-700.7578125000001	-240.3954467773438	764.7654418945314	-936.4406738281252	-188.9397583007813	701.5132446289064	-914.3000488281252	-154.776611328125	715.3704833984376	-880.9995727539065	-200.8236999511719	643.9273681640626	-912.496765136719	-186.8663330078125	584.7852172851564	-914.5444946289065	-203.6143493652344	572.2913818359376	-777.1001586914065	-105.9370193481446	397.7538452148439	-864.9304199218752	-150.1238555908203	349.9184875488282	-924.610046386719	-111.6072540283203	349.9684143066407	-899.9595947265627	-98.96558380126956	271.3007202148438	-869.4402465820315	-137.1189422607422	145.4979400634766	-903.912536621094	-137.5611267089844	166.335693359375	-818.5502929687502	-193.5032653808594	103.6856765747071	-867.790222167969	23.68611145019532	125.4282150268555	-808.8872680664065	28.83859062194825	128.9764862060547	-846.1033325195315	1.475109815597534	103.1375503540039	-903.682800292969	-360.2925720214844	799.2172851562502	-580.6046752929689	-327.4892272949219	741.8731079101564	-582.2271118164064	-293.5460815429688	742.4377441406251	-584.5975952148439	-356.7618103027344	668.2493286132814	-611.4227294921876	-343.8972167968751	518.7650146484376	-638.4969482421876	-331.0625305175782	517.9288330078126	-769.5395507812502	-295.9596862792969	363.9381103515626	-736.4055786132814	-325.7533874511719	277.0673217773438	-679.8931274414064	-297.2369079589844	278.6828918457032	-718.7744750976564	-313.3970642089844	237.0752258300782	-756.7396240234376	-367.3704528808594	101.6139907836914	-720.7545776367189	-355.3276367187501	132.8179626464844	-804.0982055664065	-433.8299560546876	85.24559020996095	-781.8417968750002	-208.9628295898438	55.38342285156251	-785.5386352539065	-210.9483032226563	50.99118041992189	-745.2584838867189	-256.6225891113282	33.33257293701173	-699.3162841796876	216.4279785156251	1346.491455078125	-601.4634399414064	
